<?xml version="1.0" encoding="UTF-8" standalone="no"?>
<!DOCTYPE svg PUBLIC "-//W3C//DTD SVG 1.1//EN"
 "http://www.w3.org/Graphics/SVG/1.1/DTD/svg11.dtd">
<!-- Generated by graphviz version 2.49.0 (20210829.0051)
 -->
<!-- Title: snakemake_dag Pages: 1 -->
<svg width="1086pt" height="692pt"
 viewBox="0.00 0.00 1085.50 692.00" xmlns="http://www.w3.org/2000/svg" xmlns:xlink="http://www.w3.org/1999/xlink">
<g id="graph0" class="graph" transform="scale(1 1) rotate(0) translate(4 688)">
<title>snakemake_dag</title>
<polygon fill="white" stroke="transparent" points="-4,4 -4,-688 1081.5,-688 1081.5,4 -4,4"/>
<!-- 0 -->
<g id="node1" class="node">
<title>0</title>
<path fill="none" stroke="#bed856" stroke-width="2" d="M561.5,-36C561.5,-36 531.5,-36 531.5,-36 525.5,-36 519.5,-30 519.5,-24 519.5,-24 519.5,-12 519.5,-12 519.5,-6 525.5,0 531.5,0 531.5,0 561.5,0 561.5,0 567.5,0 573.5,-6 573.5,-12 573.5,-12 573.5,-24 573.5,-24 573.5,-30 567.5,-36 561.5,-36"/>
<text text-anchor="middle" x="546.5" y="-15.5" font-family="sans" font-size="10.00">all</text>
</g>
<!-- 1 -->
<g id="node2" class="node">
<title>1</title>
<path fill="none" stroke="#d8d356" stroke-width="2" stroke-dasharray="5,2" d="M525,-684C525,-684 490,-684 490,-684 484,-684 478,-678 478,-672 478,-672 478,-660 478,-660 478,-654 484,-648 490,-648 490,-648 525,-648 525,-648 531,-648 537,-654 537,-660 537,-660 537,-672 537,-672 537,-678 531,-684 525,-684"/>
<text text-anchor="middle" x="507.5" y="-663.5" font-family="sans" font-size="10.00">fa_index</text>
</g>
<!-- 1&#45;&gt;0 -->
<g id="edge1" class="edge">
<title>1&#45;&gt;0</title>
<path fill="none" stroke="grey" stroke-width="2" d="M477.84,-657.62C402.46,-638.01 209.5,-582.03 209.5,-523 209.5,-523 209.5,-523 209.5,-161 209.5,-117.45 216.05,-98.64 250.5,-72 290.37,-41.17 438.49,-26.7 508.88,-21.44"/>
<polygon fill="grey" stroke="grey" stroke-width="2" points="509.36,-24.92 519.08,-20.71 508.86,-17.94 509.36,-24.92"/>
</g>
<!-- 5 -->
<g id="node6" class="node">
<title>5</title>
<path fill="none" stroke="#5692d8" stroke-width="2" d="M544.5,-612C544.5,-612 470.5,-612 470.5,-612 464.5,-612 458.5,-606 458.5,-600 458.5,-600 458.5,-588 458.5,-588 458.5,-582 464.5,-576 470.5,-576 470.5,-576 544.5,-576 544.5,-576 550.5,-576 556.5,-582 556.5,-588 556.5,-588 556.5,-600 556.5,-600 556.5,-606 550.5,-612 544.5,-612"/>
<text text-anchor="middle" x="507.5" y="-591.5" font-family="sans" font-size="10.00">haplotype_caller</text>
</g>
<!-- 1&#45;&gt;5 -->
<g id="edge20" class="edge">
<title>1&#45;&gt;5</title>
<path fill="none" stroke="grey" stroke-width="2" d="M507.5,-647.7C507.5,-639.98 507.5,-630.71 507.5,-622.11"/>
<polygon fill="grey" stroke="grey" stroke-width="2" points="511,-622.1 507.5,-612.1 504,-622.1 511,-622.1"/>
</g>
<!-- 6 -->
<g id="node7" class="node">
<title>6</title>
<path fill="none" stroke="#5692d8" stroke-width="2" d="M683.5,-612C683.5,-612 609.5,-612 609.5,-612 603.5,-612 597.5,-606 597.5,-600 597.5,-600 597.5,-588 597.5,-588 597.5,-582 603.5,-576 609.5,-576 609.5,-576 683.5,-576 683.5,-576 689.5,-576 695.5,-582 695.5,-588 695.5,-588 695.5,-600 695.5,-600 695.5,-606 689.5,-612 683.5,-612"/>
<text text-anchor="middle" x="646.5" y="-591.5" font-family="sans" font-size="10.00">haplotype_caller</text>
</g>
<!-- 1&#45;&gt;6 -->
<g id="edge23" class="edge">
<title>1&#45;&gt;6</title>
<path fill="none" stroke="grey" stroke-width="2" d="M537.32,-649.98C556.5,-640.32 581.74,-627.61 603.12,-616.85"/>
<polygon fill="grey" stroke="grey" stroke-width="2" points="604.97,-619.83 612.33,-612.21 601.82,-613.58 604.97,-619.83"/>
</g>
<!-- 2 -->
<g id="node3" class="node">
<title>2</title>
<path fill="none" stroke="#d89556" stroke-width="2" stroke-dasharray="5,2" d="M669.5,-684C669.5,-684 623.5,-684 623.5,-684 617.5,-684 611.5,-678 611.5,-672 611.5,-672 611.5,-660 611.5,-660 611.5,-654 617.5,-648 623.5,-648 623.5,-648 669.5,-648 669.5,-648 675.5,-648 681.5,-654 681.5,-660 681.5,-660 681.5,-672 681.5,-672 681.5,-678 675.5,-684 669.5,-684"/>
<text text-anchor="middle" x="646.5" y="-663.5" font-family="sans" font-size="10.00">picard_dict</text>
</g>
<!-- 2&#45;&gt;0 -->
<g id="edge2" class="edge">
<title>2&#45;&gt;0</title>
<path fill="none" stroke="grey" stroke-width="2" d="M681.51,-652.38C747.89,-627.37 885.5,-569.88 885.5,-523 885.5,-523 885.5,-523 885.5,-161 885.5,-31.32 671.84,-18.04 583.76,-18.08"/>
<polygon fill="grey" stroke="grey" stroke-width="2" points="583.65,-14.58 573.67,-18.15 583.69,-21.58 583.65,-14.58"/>
</g>
<!-- 2&#45;&gt;5 -->
<g id="edge21" class="edge">
<title>2&#45;&gt;5</title>
<path fill="none" stroke="grey" stroke-width="2" d="M612.5,-647.88C593.9,-638.51 570.67,-626.81 550.79,-616.8"/>
<polygon fill="grey" stroke="grey" stroke-width="2" points="552.14,-613.56 541.63,-612.19 548.99,-619.81 552.14,-613.56"/>
</g>
<!-- 2&#45;&gt;6 -->
<g id="edge24" class="edge">
<title>2&#45;&gt;6</title>
<path fill="none" stroke="grey" stroke-width="2" d="M646.5,-647.7C646.5,-639.98 646.5,-630.71 646.5,-622.11"/>
<polygon fill="grey" stroke="grey" stroke-width="2" points="650,-622.1 646.5,-612.1 643,-622.1 650,-622.1"/>
</g>
<!-- 3 -->
<g id="node4" class="node">
<title>3</title>
<path fill="none" stroke="#56d8c1" stroke-width="2" stroke-dasharray="5,2" d="M355,-684C355,-684 12,-684 12,-684 6,-684 0,-678 0,-672 0,-672 0,-660 0,-660 0,-654 6,-648 12,-648 12,-648 355,-648 355,-648 361,-648 367,-654 367,-660 367,-660 367,-672 367,-672 367,-678 361,-684 355,-684"/>
<text text-anchor="middle" x="183.5" y="-669" font-family="sans" font-size="10.00">bam_index</text>
<text text-anchor="middle" x="183.5" y="-658" font-family="sans" font-size="10.00">sample: NA12878.chrom11.ILLUMINA.bwa.CEU.low_coverage.20121211</text>
</g>
<!-- 3&#45;&gt;0 -->
<g id="edge3" class="edge">
<title>3&#45;&gt;0</title>
<path fill="none" stroke="grey" stroke-width="2" d="M181.13,-647.99C177.63,-621.38 171.5,-568.28 171.5,-523 171.5,-523 171.5,-523 171.5,-161 171.5,-116.87 179.98,-98.18 215.5,-72 261.64,-37.99 432.75,-24.94 509.2,-20.73"/>
<polygon fill="grey" stroke="grey" stroke-width="2" points="509.53,-24.22 519.33,-20.19 509.16,-17.23 509.53,-24.22"/>
</g>
<!-- 3&#45;&gt;5 -->
<g id="edge19" class="edge">
<title>3&#45;&gt;5</title>
<path fill="none" stroke="grey" stroke-width="2" d="M262.35,-647.97C319.71,-635.57 396.17,-619.05 448.35,-607.78"/>
<polygon fill="grey" stroke="grey" stroke-width="2" points="449.09,-611.2 458.12,-605.67 447.61,-604.36 449.09,-611.2"/>
</g>
<!-- 4 -->
<g id="node5" class="node">
<title>4</title>
<path fill="none" stroke="#56d8c1" stroke-width="2" stroke-dasharray="5,2" d="M1065.5,-684C1065.5,-684 757.5,-684 757.5,-684 751.5,-684 745.5,-678 745.5,-672 745.5,-672 745.5,-660 745.5,-660 745.5,-654 751.5,-648 757.5,-648 757.5,-648 1065.5,-648 1065.5,-648 1071.5,-648 1077.5,-654 1077.5,-660 1077.5,-660 1077.5,-672 1077.5,-672 1077.5,-678 1071.5,-684 1065.5,-684"/>
<text text-anchor="middle" x="911.5" y="-669" font-family="sans" font-size="10.00">bam_index</text>
<text text-anchor="middle" x="911.5" y="-658" font-family="sans" font-size="10.00">sample: NA12878.chrom11.ILLUMINA.bwa.CEU.exome.20121211</text>
</g>
<!-- 4&#45;&gt;0 -->
<g id="edge4" class="edge">
<title>4&#45;&gt;0</title>
<path fill="none" stroke="grey" stroke-width="2" d="M913.87,-647.99C917.37,-621.38 923.5,-568.28 923.5,-523 923.5,-523 923.5,-523 923.5,-161 923.5,-114.03 905.72,-97.85 866.5,-72 820.56,-41.73 658.33,-26.79 584.09,-21.42"/>
<polygon fill="grey" stroke="grey" stroke-width="2" points="584.02,-17.9 573.8,-20.69 583.53,-24.88 584.02,-17.9"/>
</g>
<!-- 4&#45;&gt;6 -->
<g id="edge22" class="edge">
<title>4&#45;&gt;6</title>
<path fill="none" stroke="grey" stroke-width="2" d="M847.01,-647.97C803.9,-636.58 747.59,-621.7 705.63,-610.62"/>
<polygon fill="grey" stroke="grey" stroke-width="2" points="706.39,-607.2 695.83,-608.03 704.6,-613.97 706.39,-607.2"/>
</g>
<!-- 5&#45;&gt;0 -->
<g id="edge5" class="edge">
<title>5&#45;&gt;0</title>
<path fill="none" stroke="grey" stroke-width="2" d="M458.29,-588.21C382.91,-577.85 247.5,-546.02 247.5,-451 247.5,-451 247.5,-451 247.5,-161 247.5,-118.33 250.66,-99.25 283.5,-72 317.45,-43.83 445.19,-28.33 509.31,-22.17"/>
<polygon fill="grey" stroke="grey" stroke-width="2" points="509.77,-25.64 519.4,-21.23 509.11,-18.67 509.77,-25.64"/>
</g>
<!-- 7 -->
<g id="node8" class="node">
<title>7</title>
<path fill="none" stroke="#56b1d8" stroke-width="2" d="M608,-540C608,-540 547,-540 547,-540 541,-540 535,-534 535,-528 535,-528 535,-516 535,-516 535,-510 541,-504 547,-504 547,-504 608,-504 608,-504 614,-504 620,-510 620,-516 620,-516 620,-528 620,-528 620,-534 614,-540 608,-540"/>
<text text-anchor="middle" x="577.5" y="-519.5" font-family="sans" font-size="10.00">combine_gvcf</text>
</g>
<!-- 5&#45;&gt;7 -->
<g id="edge25" class="edge">
<title>5&#45;&gt;7</title>
<path fill="none" stroke="grey" stroke-width="2" d="M524.8,-575.7C533.36,-567.14 543.84,-556.66 553.2,-547.3"/>
<polygon fill="grey" stroke="grey" stroke-width="2" points="555.8,-549.65 560.4,-540.1 550.85,-544.7 555.8,-549.65"/>
</g>
<!-- 6&#45;&gt;0 -->
<g id="edge6" class="edge">
<title>6&#45;&gt;0</title>
<path fill="none" stroke="grey" stroke-width="2" d="M695.67,-581.36C755.18,-564 847.5,-525.13 847.5,-451 847.5,-451 847.5,-451 847.5,-161 847.5,-45.7 664.63,-23.87 583.96,-19.85"/>
<polygon fill="grey" stroke="grey" stroke-width="2" points="583.88,-16.34 573.74,-19.41 583.58,-23.34 583.88,-16.34"/>
</g>
<!-- 6&#45;&gt;7 -->
<g id="edge26" class="edge">
<title>6&#45;&gt;7</title>
<path fill="none" stroke="grey" stroke-width="2" d="M629.44,-575.7C621,-567.14 610.68,-556.66 601.46,-547.3"/>
<polygon fill="grey" stroke="grey" stroke-width="2" points="603.87,-544.77 594.36,-540.1 598.89,-549.68 603.87,-544.77"/>
</g>
<!-- 7&#45;&gt;0 -->
<g id="edge7" class="edge">
<title>7&#45;&gt;0</title>
<path fill="none" stroke="grey" stroke-width="2" d="M620.05,-514.66C687.03,-502 809.5,-466.84 809.5,-379 809.5,-379 809.5,-379 809.5,-161 809.5,-114.27 791.27,-99.53 753.5,-72 702.57,-34.88 628.08,-23.68 583.73,-20.35"/>
<polygon fill="grey" stroke="grey" stroke-width="2" points="583.87,-16.86 573.67,-19.7 583.42,-23.84 583.87,-16.86"/>
</g>
<!-- 8 -->
<g id="node9" class="node">
<title>8</title>
<path fill="none" stroke="#9fd856" stroke-width="2" d="M439,-468C439,-468 374,-468 374,-468 368,-468 362,-462 362,-456 362,-456 362,-444 362,-444 362,-438 368,-432 374,-432 374,-432 439,-432 439,-432 445,-432 451,-438 451,-444 451,-444 451,-456 451,-456 451,-462 445,-468 439,-468"/>
<text text-anchor="middle" x="406.5" y="-447.5" font-family="sans" font-size="10.00">genotype_gvcf</text>
</g>
<!-- 7&#45;&gt;8 -->
<g id="edge27" class="edge">
<title>7&#45;&gt;8</title>
<path fill="none" stroke="grey" stroke-width="2" d="M535.67,-503.88C512.08,-494.22 482.44,-482.09 457.5,-471.88"/>
<polygon fill="grey" stroke="grey" stroke-width="2" points="458.78,-468.62 448.2,-468.07 456.12,-475.1 458.78,-468.62"/>
</g>
<!-- 8&#45;&gt;0 -->
<g id="edge8" class="edge">
<title>8&#45;&gt;0</title>
<path fill="none" stroke="grey" stroke-width="2" d="M396.66,-431.66C365.17,-373.59 273.86,-183.37 361.5,-72 379.74,-48.82 460.81,-32.41 509.37,-24.45"/>
<polygon fill="grey" stroke="grey" stroke-width="2" points="510.17,-27.87 519.5,-22.84 509.07,-20.95 510.17,-27.87"/>
</g>
<!-- 9 -->
<g id="node10" class="node">
<title>9</title>
<path fill="none" stroke="#d87556" stroke-width="2" d="M519.5,-396C519.5,-396 485.5,-396 485.5,-396 479.5,-396 473.5,-390 473.5,-384 473.5,-384 473.5,-372 473.5,-372 473.5,-366 479.5,-360 485.5,-360 485.5,-360 519.5,-360 519.5,-360 525.5,-360 531.5,-366 531.5,-372 531.5,-372 531.5,-384 531.5,-384 531.5,-390 525.5,-396 519.5,-396"/>
<text text-anchor="middle" x="502.5" y="-375.5" font-family="sans" font-size="10.00">left_trim</text>
</g>
<!-- 8&#45;&gt;9 -->
<g id="edge28" class="edge">
<title>8&#45;&gt;9</title>
<path fill="none" stroke="grey" stroke-width="2" d="M430.23,-431.7C442.44,-422.8 457.49,-411.82 470.68,-402.2"/>
<polygon fill="grey" stroke="grey" stroke-width="2" points="473.02,-404.82 479.04,-396.1 468.9,-399.17 473.02,-404.82"/>
</g>
<!-- 18 -->
<g id="node19" class="node">
<title>18</title>
<path fill="none" stroke="#56d8a2" stroke-width="2" d="M333,-396C333,-396 288,-396 288,-396 282,-396 276,-390 276,-384 276,-384 276,-372 276,-372 276,-366 282,-360 288,-360 288,-360 333,-360 333,-360 339,-360 345,-366 345,-372 345,-372 345,-384 345,-384 345,-390 339,-396 333,-396"/>
<text text-anchor="middle" x="310.5" y="-375.5" font-family="sans" font-size="10.00">snpEff_snp</text>
</g>
<!-- 8&#45;&gt;18 -->
<g id="edge37" class="edge">
<title>8&#45;&gt;18</title>
<path fill="none" stroke="grey" stroke-width="2" d="M382.77,-431.7C370.56,-422.8 355.51,-411.82 342.32,-402.2"/>
<polygon fill="grey" stroke="grey" stroke-width="2" points="344.1,-399.17 333.96,-396.1 339.98,-404.82 344.1,-399.17"/>
</g>
<!-- 9&#45;&gt;0 -->
<g id="edge9" class="edge">
<title>9&#45;&gt;0</title>
<path fill="none" stroke="grey" stroke-width="2" d="M531.54,-375.12C601.1,-368.87 771.5,-342.6 771.5,-235 771.5,-235 771.5,-235 771.5,-161 771.5,-115.41 756.15,-100.42 720.5,-72 680.66,-40.24 621.93,-27.46 583.94,-22.35"/>
<polygon fill="grey" stroke="grey" stroke-width="2" points="584.16,-18.85 573.81,-21.11 583.31,-25.8 584.16,-18.85"/>
</g>
<!-- 10 -->
<g id="node11" class="node">
<title>10</title>
<path fill="none" stroke="#5673d8" stroke-width="2" d="M449.5,-324C449.5,-324 405.5,-324 405.5,-324 399.5,-324 393.5,-318 393.5,-312 393.5,-312 393.5,-300 393.5,-300 393.5,-294 399.5,-288 405.5,-288 405.5,-288 449.5,-288 449.5,-288 455.5,-288 461.5,-294 461.5,-300 461.5,-300 461.5,-312 461.5,-312 461.5,-318 455.5,-324 449.5,-324"/>
<text text-anchor="middle" x="427.5" y="-303.5" font-family="sans" font-size="10.00">select_snp</text>
</g>
<!-- 9&#45;&gt;10 -->
<g id="edge29" class="edge">
<title>9&#45;&gt;10</title>
<path fill="none" stroke="grey" stroke-width="2" d="M483.96,-359.7C474.7,-351.05 463.34,-340.45 453.24,-331.03"/>
<polygon fill="grey" stroke="grey" stroke-width="2" points="455.52,-328.37 445.83,-324.1 450.75,-333.49 455.52,-328.37"/>
</g>
<!-- 11 -->
<g id="node12" class="node">
<title>11</title>
<path fill="none" stroke="#88d856" stroke-width="2" d="M560,-324C560,-324 509,-324 509,-324 503,-324 497,-318 497,-312 497,-312 497,-300 497,-300 497,-294 503,-288 509,-288 509,-288 560,-288 560,-288 566,-288 572,-294 572,-300 572,-300 572,-312 572,-312 572,-318 566,-324 560,-324"/>
<text text-anchor="middle" x="534.5" y="-303.5" font-family="sans" font-size="10.00">select_indel</text>
</g>
<!-- 9&#45;&gt;11 -->
<g id="edge30" class="edge">
<title>9&#45;&gt;11</title>
<path fill="none" stroke="grey" stroke-width="2" d="M510.41,-359.7C514.05,-351.73 518.45,-342.1 522.49,-333.26"/>
<polygon fill="grey" stroke="grey" stroke-width="2" points="525.71,-334.65 526.68,-324.1 519.34,-331.74 525.71,-334.65"/>
</g>
<!-- 10&#45;&gt;0 -->
<g id="edge10" class="edge">
<title>10&#45;&gt;0</title>
<path fill="none" stroke="grey" stroke-width="2" d="M415.94,-287.87C389.59,-246.52 331.09,-139.65 380.5,-72 409.84,-31.83 469.97,-21.4 509.24,-19.07"/>
<polygon fill="grey" stroke="grey" stroke-width="2" points="509.63,-22.56 519.47,-18.62 509.33,-15.57 509.63,-22.56"/>
</g>
<!-- 11&#45;&gt;0 -->
<g id="edge11" class="edge">
<title>11&#45;&gt;0</title>
<path fill="none" stroke="grey" stroke-width="2" d="M539.37,-287.98C542.06,-277.67 545.14,-264.19 546.5,-252 554.79,-177.88 551.14,-89.67 548.45,-46.11"/>
<polygon fill="grey" stroke="grey" stroke-width="2" points="551.93,-45.78 547.79,-36.03 544.95,-46.23 551.93,-45.78"/>
</g>
<!-- 12 -->
<g id="node13" class="node">
<title>12</title>
<path fill="none" stroke="#68d856" stroke-width="2" d="M668.5,-252C668.5,-252 630.5,-252 630.5,-252 624.5,-252 618.5,-246 618.5,-240 618.5,-240 618.5,-228 618.5,-228 618.5,-222 624.5,-216 630.5,-216 630.5,-216 668.5,-216 668.5,-216 674.5,-216 680.5,-222 680.5,-228 680.5,-228 680.5,-240 680.5,-240 680.5,-246 674.5,-252 668.5,-252"/>
<text text-anchor="middle" x="649.5" y="-231.5" font-family="sans" font-size="10.00">snp_filter</text>
</g>
<!-- 11&#45;&gt;12 -->
<g id="edge31" class="edge">
<title>11&#45;&gt;12</title>
<path fill="none" stroke="grey" stroke-width="2" d="M562.63,-287.88C577.67,-278.72 596.37,-267.34 612.56,-257.48"/>
<polygon fill="grey" stroke="grey" stroke-width="2" points="614.54,-260.38 621.26,-252.19 610.9,-254.4 614.54,-260.38"/>
</g>
<!-- 13 -->
<g id="node14" class="node">
<title>13</title>
<path fill="none" stroke="#d85656" stroke-width="2" d="M525.5,-252C525.5,-252 481.5,-252 481.5,-252 475.5,-252 469.5,-246 469.5,-240 469.5,-240 469.5,-228 469.5,-228 469.5,-222 475.5,-216 481.5,-216 481.5,-216 525.5,-216 525.5,-216 531.5,-216 537.5,-222 537.5,-228 537.5,-228 537.5,-240 537.5,-240 537.5,-246 531.5,-252 525.5,-252"/>
<text text-anchor="middle" x="503.5" y="-231.5" font-family="sans" font-size="10.00">indel_filter</text>
</g>
<!-- 11&#45;&gt;13 -->
<g id="edge32" class="edge">
<title>11&#45;&gt;13</title>
<path fill="none" stroke="grey" stroke-width="2" d="M526.84,-287.7C523.31,-279.73 519.04,-270.1 515.13,-261.26"/>
<polygon fill="grey" stroke="grey" stroke-width="2" points="518.32,-259.83 511.07,-252.1 511.92,-262.67 518.32,-259.83"/>
</g>
<!-- 12&#45;&gt;0 -->
<g id="edge12" class="edge">
<title>12&#45;&gt;0</title>
<path fill="none" stroke="grey" stroke-width="2" d="M679.8,-215.8C692.38,-206.9 705.62,-194.77 712.5,-180 733.07,-135.82 726.41,-107.95 693.5,-72 665.15,-41.04 617.36,-28.14 583.99,-22.78"/>
<polygon fill="grey" stroke="grey" stroke-width="2" points="584.1,-19.26 573.71,-21.3 583.1,-26.19 584.1,-19.26"/>
</g>
<!-- 14 -->
<g id="node15" class="node">
<title>14</title>
<path fill="none" stroke="#56d863" stroke-width="2" d="M691.5,-180C691.5,-180 607.5,-180 607.5,-180 601.5,-180 595.5,-174 595.5,-168 595.5,-168 595.5,-156 595.5,-156 595.5,-150 601.5,-144 607.5,-144 607.5,-144 691.5,-144 691.5,-144 697.5,-144 703.5,-150 703.5,-156 703.5,-156 703.5,-168 703.5,-168 703.5,-174 697.5,-180 691.5,-180"/>
<text text-anchor="middle" x="649.5" y="-159.5" font-family="sans" font-size="10.00">bcftools_norm_snp</text>
</g>
<!-- 12&#45;&gt;14 -->
<g id="edge33" class="edge">
<title>12&#45;&gt;14</title>
<path fill="none" stroke="grey" stroke-width="2" d="M649.5,-215.7C649.5,-207.98 649.5,-198.71 649.5,-190.11"/>
<polygon fill="grey" stroke="grey" stroke-width="2" points="653,-190.1 649.5,-180.1 646,-190.1 653,-190.1"/>
</g>
<!-- 13&#45;&gt;0 -->
<g id="edge13" class="edge">
<title>13&#45;&gt;0</title>
<path fill="none" stroke="grey" stroke-width="2" d="M506.95,-215.85C514.4,-178.75 532.07,-90.81 541.05,-46.1"/>
<polygon fill="grey" stroke="grey" stroke-width="2" points="544.5,-46.73 543.04,-36.23 537.64,-45.35 544.5,-46.73"/>
</g>
<!-- 15 -->
<g id="node16" class="node">
<title>15</title>
<path fill="none" stroke="#56d882" stroke-width="2" d="M487.5,-180C487.5,-180 405.5,-180 405.5,-180 399.5,-180 393.5,-174 393.5,-168 393.5,-168 393.5,-156 393.5,-156 393.5,-150 399.5,-144 405.5,-144 405.5,-144 487.5,-144 487.5,-144 493.5,-144 499.5,-150 499.5,-156 499.5,-156 499.5,-168 499.5,-168 499.5,-174 493.5,-180 487.5,-180"/>
<text text-anchor="middle" x="446.5" y="-159.5" font-family="sans" font-size="10.00">bcftools_norm_ind</text>
</g>
<!-- 13&#45;&gt;15 -->
<g id="edge34" class="edge">
<title>13&#45;&gt;15</title>
<path fill="none" stroke="grey" stroke-width="2" d="M489.41,-215.7C482.58,-207.3 474.24,-197.07 466.74,-187.86"/>
<polygon fill="grey" stroke="grey" stroke-width="2" points="469.46,-185.65 460.43,-180.1 464.03,-190.07 469.46,-185.65"/>
</g>
<!-- 14&#45;&gt;0 -->
<g id="edge14" class="edge">
<title>14&#45;&gt;0</title>
<path fill="none" stroke="grey" stroke-width="2" d="M662.4,-143.96C675.03,-125.03 690.38,-94.2 675.5,-72 655.24,-41.77 614.31,-28.77 583.96,-23.19"/>
<polygon fill="grey" stroke="grey" stroke-width="2" points="584.16,-19.67 573.72,-21.5 583.02,-26.58 584.16,-19.67"/>
</g>
<!-- 16 -->
<g id="node17" class="node">
<title>16</title>
<path fill="none" stroke="#d8b456" stroke-width="2" d="M655,-108C655,-108 606,-108 606,-108 600,-108 594,-102 594,-96 594,-96 594,-84 594,-84 594,-78 600,-72 606,-72 606,-72 655,-72 655,-72 661,-72 667,-78 667,-84 667,-84 667,-96 667,-96 667,-102 661,-108 655,-108"/>
<text text-anchor="middle" x="630.5" y="-87.5" font-family="sans" font-size="10.00">anovar_snp</text>
</g>
<!-- 14&#45;&gt;16 -->
<g id="edge35" class="edge">
<title>14&#45;&gt;16</title>
<path fill="none" stroke="grey" stroke-width="2" d="M644.8,-143.7C642.69,-135.9 640.14,-126.51 637.78,-117.83"/>
<polygon fill="grey" stroke="grey" stroke-width="2" points="641.14,-116.84 635.14,-108.1 634.38,-118.67 641.14,-116.84"/>
</g>
<!-- 15&#45;&gt;0 -->
<g id="edge15" class="edge">
<title>15&#45;&gt;0</title>
<path fill="none" stroke="grey" stroke-width="2" d="M458.56,-143.87C475.98,-119.14 508.3,-73.24 528.53,-44.51"/>
<polygon fill="grey" stroke="grey" stroke-width="2" points="531.5,-46.38 534.39,-36.19 525.78,-42.35 531.5,-46.38"/>
</g>
<!-- 17 -->
<g id="node18" class="node">
<title>17</title>
<path fill="none" stroke="#56d0d8" stroke-width="2" d="M449,-108C449,-108 402,-108 402,-108 396,-108 390,-102 390,-96 390,-96 390,-84 390,-84 390,-78 396,-72 402,-72 402,-72 449,-72 449,-72 455,-72 461,-78 461,-84 461,-84 461,-96 461,-96 461,-102 455,-108 449,-108"/>
<text text-anchor="middle" x="425.5" y="-87.5" font-family="sans" font-size="10.00">anovar_ind</text>
</g>
<!-- 15&#45;&gt;17 -->
<g id="edge36" class="edge">
<title>15&#45;&gt;17</title>
<path fill="none" stroke="grey" stroke-width="2" d="M441.31,-143.7C438.97,-135.9 436.15,-126.51 433.55,-117.83"/>
<polygon fill="grey" stroke="grey" stroke-width="2" points="436.86,-116.68 430.63,-108.1 430.15,-118.69 436.86,-116.68"/>
</g>
<!-- 16&#45;&gt;0 -->
<g id="edge16" class="edge">
<title>16&#45;&gt;0</title>
<path fill="none" stroke="grey" stroke-width="2" d="M609.74,-71.7C599.26,-62.97 586.39,-52.24 575,-42.75"/>
<polygon fill="grey" stroke="grey" stroke-width="2" points="576.95,-39.82 567.03,-36.1 572.47,-45.19 576.95,-39.82"/>
</g>
<!-- 17&#45;&gt;0 -->
<g id="edge17" class="edge">
<title>17&#45;&gt;0</title>
<path fill="none" stroke="grey" stroke-width="2" d="M455.1,-71.88C471.78,-62.23 492.75,-50.1 510.39,-39.89"/>
<polygon fill="grey" stroke="grey" stroke-width="2" points="512.37,-42.79 519.27,-34.75 508.87,-36.73 512.37,-42.79"/>
</g>
<!-- 18&#45;&gt;0 -->
<g id="edge18" class="edge">
<title>18&#45;&gt;0</title>
<path fill="none" stroke="grey" stroke-width="2" d="M305.44,-359.68C298.14,-333.11 285.5,-280.56 285.5,-235 285.5,-235 285.5,-235 285.5,-161 285.5,-120.03 279.91,-100.33 309.5,-72 337.8,-44.9 449.91,-29.22 509.23,-22.66"/>
<polygon fill="grey" stroke="grey" stroke-width="2" points="509.75,-26.12 519.32,-21.57 509,-19.16 509.75,-26.12"/>
</g>
</g>
</svg>
